<?xml version="1.0" standalone="no"?>
<!DOCTYPE svg PUBLIC "-//W3C//DTD SVG 20010904//EN"
 "http://www.w3.org/TR/2001/REC-SVG-20010904/DTD/svg10.dtd">
<svg version="1.0" xmlns="http://www.w3.org/2000/svg"
 width="1409.000000pt" height="1414.000000pt" viewBox="0 0 1409.000000 1414.000000"
 preserveAspectRatio="xMidYMid meet">

<g transform="translate(0.000000,1414.000000) scale(0.100000,-0.100000)"
fill="#000000" stroke="none">
<path d="M9528 14107 c-250 -106 -388 -411 -438 -967 -22 -243 -12 -805 20
-1099 5 -47 8 -86 6 -88 -1 -2 -41 8 -87 22 -230 70 -546 140 -799 179 -911
139 -1823 76 -2700 -185 l-135 -40 -1955 471 c-1389 335 -1963 470 -1985 466
-18 -4 -41 -17 -53 -29 -18 -19 -154 -571 -707 -2867 -377 -1564 -685 -2851
-685 -2861 0 -26 28 -49 60 -49 34 0 39 6 140 183 40 70 75 127 78 127 3 0 3
-69 0 -154 -6 -166 1 -200 43 -230 13 -9 41 -16 62 -16 55 0 85 35 187 213 72
125 86 145 91 125 4 -13 7 -103 8 -200 1 -174 1 -177 27 -207 32 -39 84 -50
129 -28 26 13 52 48 131 185 l99 170 5 -191 c4 -147 9 -197 20 -215 19 -28 76
-55 102 -48 20 5 21 2 14 -87 -18 -229 -25 -395 -26 -562 -2 -2057 1021 -3964
2735 -5100 845 -561 1763 -886 2795 -990 343 -35 892 -30 1260 11 1793 199
3406 1184 4407 2689 55 83 115 176 133 207 19 31 36 56 37 54 2 -2 19 -93 38
-204 208 -1215 586 -1835 1060 -1739 570 116 584 803 40 1905 -112 227 -221
428 -322 596 -42 69 -77 153 -159 381 -92 258 -103 297 -93 322 26 70 112 389
144 541 221 1024 187 2034 -100 3032 -217 752 -604 1495 -1103 2115 -230 286
-571 633 -849 864 l-161 133 -36 102 c-19 55 -242 715 -495 1464 -254 750
-473 1386 -488 1413 -35 66 -120 144 -190 177 -47 21 -76 27 -153 29 -82 3
-103 0 -152 -20z m248 -116 c54 -24 109 -74 139 -125 13 -22 475 -1375 1026
-3006 946 -2795 1003 -2969 1003 -3035 1 -57 -5 -81 -28 -130 -32 -69 -27 -73
-77 69 -27 74 -44 103 -106 177 -152 182 -273 269 -371 269 -137 0 -202 -150
-189 -435 5 -107 12 -148 37 -229 17 -54 30 -100 28 -102 -2 -2 -96 33 -208
76 -204 79 -249 105 -301 171 -20 24 -229 586 -730 1959 -386 1059 -708 1946
-715 1971 -16 61 -50 360 -69 619 -19 240 -21 722 -5 895 44 477 161 765 345
851 63 30 161 32 221 5z m-6266 -1732 c1009 -243 1836 -443 1838 -444 2 -2
-1253 -5167 -1263 -5193 -3 -9 -13 -7 -37 8 -39 24 -78 25 -119 5 -22 -12 -44
-46 -94 -143 l-64 -127 0 149 c1 132 -1 152 -19 175 -28 39 -84 55 -127 37
-39 -17 -35 -11 -121 -171 l-64 -120 1 140 c1 191 3 183 -30 216 -24 23 -38
29 -74 29 -28 0 -53 -7 -66 -17 -12 -10 -55 -81 -96 -158 l-73 -140 5 157 c5
136 4 160 -11 182 -36 56 -116 70 -165 28 -11 -9 -54 -82 -95 -162 l-76 -145
-1 120 c0 66 -4 155 -8 199 -6 69 -10 81 -34 102 -38 33 -106 33 -141 2 -13
-13 -64 -95 -113 -182 l-88 -159 -5 196 c-5 178 -7 198 -26 224 -45 61 -122
67 -166 15 -13 -15 -63 -97 -113 -182 l-90 -155 -5 190 c-5 204 -9 218 -61
249 -39 23 -83 20 -117 -9 -16 -14 -67 -94 -113 -177 l-84 -153 -6 100 c-4 55
-7 142 -8 194 -1 92 -1 93 -35 127 -27 27 -42 34 -74 34 -58 0 -78 -22 -177
-195 -48 -82 -91 -154 -96 -160 -5 -5 -9 66 -9 185 0 170 -3 198 -18 216 -35
44 -107 58 -149 29 -11 -8 -65 -91 -119 -184 l-99 -170 -6 152 c-4 84 -7 176
-8 205 -1 45 -6 58 -30 83 -24 24 -38 29 -76 29 -62 0 -80 -19 -185 -203 l-85
-148 -5 166 -5 167 -33 29 c-35 31 -85 39 -124 18 -19 -10 -21 -9 -15 17 8 39
1235 5130 1247 5175 l10 37 93 -23 c50 -13 918 -222 1927 -466z m4280 -255
c319 -27 663 -84 960 -160 215 -55 374 -105 388 -122 6 -9 12 -32 12 -51 0
-34 40 -156 138 -428 l41 -112 -52 21 c-205 83 -664 224 -763 235 -46 5 -53 3
-68 -18 -9 -13 -16 -31 -16 -39 0 -37 27 -51 180 -91 296 -77 761 -242 779
-277 5 -9 275 -748 601 -1642 325 -894 603 -1645 617 -1669 33 -57 104 -126
157 -153 23 -12 148 -63 279 -114 131 -51 241 -95 244 -98 3 -3 219 -693 479
-1532 l473 -1527 -39 -96 c-220 -553 -592 -1141 -1007 -1596 -142 -156 -257
-265 -418 -399 -710 -591 -1484 -986 -2295 -1171 -779 -178 -1587 -176 -2395
5 -841 188 -1605 572 -2265 1139 -151 130 -440 424 -570 581 -536 645 -932
1424 -1094 2151 -115 514 -151 840 -151 1372 0 340 2 379 16 388 9 5 61 85
115 178 l99 169 7 -36 c4 -20 7 -108 7 -196 l1 -158 34 -34 c28 -28 41 -34 78
-34 59 0 76 19 180 205 l83 150 10 -192 c11 -211 14 -221 81 -243 67 -23 108
9 169 130 24 47 57 109 73 139 l30 53 -6 -155 c-4 -134 -3 -160 12 -181 39
-60 120 -70 166 -21 13 14 55 83 92 153 l68 127 -2 -163 -1 -163 32 -32 c26
-26 39 -32 76 -32 59 0 77 19 160 175 l67 125 -6 -143 c-7 -154 0 -184 46
-216 32 -23 90 -20 122 5 15 12 56 79 94 153 l66 131 11 -143 c9 -133 12 -145
34 -163 29 -24 43 -24 70 -1 19 14 112 386 606 2417 322 1320 587 2406 590
2413 2 6 11 12 20 12 9 0 37 11 63 24 232 117 621 226 1002 281 316 45 476 56
895 62 341 4 403 7 418 21 22 20 22 57 -1 80 -51 51 -832 28 -1309 -39 -367
-51 -725 -146 -987 -263 -33 -14 -60 -25 -62 -23 -4 4 132 556 139 563 3 4 79
28 169 54 690 202 1433 276 2158 214z m3661 -1694 c487 -484 858 -1003 1157
-1620 619 -1274 756 -2713 390 -4105 -10 -39 -12 -34 -169 405 l-160 445 13
145 c17 193 17 813 0 990 -30 312 -91 659 -168 965 -20 77 -42 150 -50 163
-16 24 -52 29 -85 12 -27 -15 -25 -48 20 -228 76 -301 125 -576 156 -877 19
-174 30 -708 18 -808 l-8 -68 -313 878 c-172 483 -312 883 -312 889 0 5 20 39
45 75 56 78 85 168 85 259 0 61 -18 122 -199 658 -110 326 -199 592 -197 592
6 0 103 -150 184 -285 82 -138 208 -381 249 -482 25 -61 56 -76 98 -49 42 27
33 65 -58 251 -154 314 -350 628 -555 887 -52 67 -54 73 -237 614 -102 300
-185 548 -185 551 0 12 120 -98 281 -257z m4 -2280 c50 -34 220 -212 240 -250
8 -15 349 -966 759 -2114 680 -1903 751 -2096 799 -2174 142 -229 362 -656
465 -900 180 -427 264 -787 234 -1012 -21 -158 -75 -256 -176 -322 -75 -49
-141 -68 -231 -68 -86 0 -141 18 -215 69 -304 210 -568 978 -685 1995 -16 138
-22 155 -678 2270 l-661 2131 -1 155 c0 253 32 301 150 220z m-9986 -1238 c1
-45 6 -58 30 -83 38 -38 106 -41 145 -6 14 12 63 91 110 176 l84 154 4 -189
c3 -173 5 -192 24 -219 20 -29 21 -36 12 -215 -31 -660 104 -1571 318 -2140
378 -1007 1007 -1862 1827 -2482 266 -201 542 -368 882 -534 706 -344 1459
-522 2285 -541 1227 -28 2386 353 3399 1120 239 180 366 290 556 481 449 451
811 975 1081 1570 41 88 74 157 74 153 0 -4 47 -161 105 -349 l105 -340 -47
-87 c-165 -304 -413 -664 -663 -961 -146 -174 -538 -566 -705 -704 -919 -762
-1975 -1216 -3140 -1350 -255 -30 -474 -39 -780 -33 -295 6 -392 12 -630 42
-2049 257 -3819 1576 -4662 3475 -440 990 -596 2113 -446 3205 l18 130 6 -110
c4 -60 7 -134 8 -163z"/>
<path d="M7096 8604 c-350 -75 -638 -365 -710 -716 -20 -96 -21 -275 -1 -365
60 -286 236 -516 490 -643 152 -76 229 -93 410 -94 125 -1 164 3 235 22 256
68 478 251 595 487 140 285 122 634 -47 897 -143 222 -366 372 -622 417 -84
15 -268 12 -350 -5z"/>
<path d="M4920 6464 c-179 -47 -341 -176 -418 -334 -54 -110 -72 -183 -72
-295 0 -110 18 -185 69 -290 63 -128 164 -228 297 -294 133 -66 -54 -61 2491
-61 2571 0 2354 -6 2511 71 144 70 261 206 319 371 23 63 26 89 27 198 0 110
-3 135 -27 206 -64 193 -221 350 -417 417 l-65 22 -2330 2 c-2003 2 -2338 0
-2385 -13z"/>
<path d="M7165 4884 c-408 -66 -722 -372 -786 -768 -17 -106 -7 -300 20 -394
93 -323 343 -565 666 -647 118 -30 292 -34 413 -9 335 69 613 332 704 669 30
109 32 346 4 450 -48 181 -128 316 -263 446 -173 167 -364 247 -608 254 -66 2
-133 1 -150 -1z"/>
</g>
</svg>
