<?xml version="1.0" ?><svg viewBox="0 0 64 64" xmlns="http://www.w3.org/2000/svg"><g id="Money_asset_income_management"><path d="M32.4436,1.2458a16.0708,16.0708,0,1,0,16.07,16.0708A16.0708,16.0708,0,0,0,32.4436,1.2458ZM31.1853,16.1787H33.656a4.1749,4.1749,0,0,1,.0078,8.35v2.0569a1.35,1.35,0,1,1-2.6992,0V24.5292H28.1482a1.35,1.35,0,0,1,0-2.7H33.656a1.4751,1.4751,0,1,0,0-2.95H31.1853a4.3788,4.3788,0,0,1-.2207-8.7525V8.0478a1.35,1.35,0,1,1,2.6992,0v2.0561H36.739a1.35,1.35,0,0,1,0,2.7H31.1853a1.6873,1.6873,0,1,0,0,3.3746Z"/><path d="M15.1059,36.736H8.5481A1.0434,1.0434,0,0,0,7.5046,37.78V60.1611a1.0435,1.0435,0,0,0,1.0435,1.0434h6.5578A2.2745,2.2745,0,0,0,17.38,58.93V39.01A2.2745,2.2745,0,0,0,15.1059,36.736Z"/><path d="M56.3279,39.3642a3.8044,3.8044,0,0,0-3.1846-1.7158h-2.57a5.5491,5.5491,0,0,0-5.1455,3.4429A5.75,5.75,0,0,1,44.4036,42.71,8.3781,8.3781,0,0,1,37.72,46.5092l-7.6123.0005a1.35,1.35,0,0,1,0-2.7h7.5762a5.0783,5.0783,0,0,0,2.7244-.8766l0-.0457A5.2188,5.2188,0,0,0,35.19,37.6484h-5.586a7.7365,7.7365,0,0,0-5.497,2.27l-.1426.1421a7.2471,7.2471,0,0,1-3.8858,2.0127V56.9848H40.45A15.43,15.43,0,0,0,54.64,47.6381l2.0068-4.6709A3.802,3.802,0,0,0,56.3279,39.3642Z"/></g></svg>