<?xml version="1.0" ?><svg viewBox="0 0 24 14.92" xmlns="http://www.w3.org/2000/svg"><title/><g data-name="Camada 2" id="Camada_2"><g data-name="Camada 1" id="Camada_1-2"><path d="M23.5,4H22V2.5a.5.5,0,0,0-.5-.5H20V.5a.5.5,0,0,0-.5-.5H.5A.5.5,0,0,0,0,.5v9.91a.5.5,0,0,0,.5.5H2v1.5a.5.5,0,0,0,.5.5H4v1.5a.5.5,0,0,0,.5.5h19a.5.5,0,0,0,.5-.5V4.5A.5.5,0,0,0,23.5,4ZM15.8,9.91H4.2A3.74,3.74,0,0,0,1,6.71V4.2A3.74,3.74,0,0,0,4.2,1H15.8A3.74,3.74,0,0,0,19,4.2V6.71A3.74,3.74,0,0,0,15.8,9.91ZM19,7.71V9.91H16.79A2.76,2.76,0,0,1,19,7.71ZM19,1V3.21A2.76,2.76,0,0,1,16.79,1ZM1,1H3.21A2.76,2.76,0,0,1,1,3.21ZM1,7.71A2.76,2.76,0,0,1,3.21,9.91H1Zm2,3.21H19.5a.5.5,0,0,0,.5-.5V3h1v8.91H3Zm20,3H5v-1H21.5a.5.5,0,0,0,.5-.5V5h1Z"/><path d="M10,2.06a3.39,3.39,0,1,0,3.39,3.39A3.4,3.4,0,0,0,10,2.06Zm0,5.78a2.39,2.39,0,1,1,2.39-2.39A2.39,2.39,0,0,1,10,7.85Z"/></g></g></svg>