<?xml version="1.0" ?><svg viewBox="0 0 64 64" xmlns="http://www.w3.org/2000/svg"><g id="Money_asset"><path d="M14.0776,13.3492c5.32-.46,8.15,1.45,9.26,2.49a19.2363,19.2363,0,0,0,8.51,2.06,17.8676,17.8676,0,0,0,8.7-2.28c1.24-1.05,4.04-2.7,9.02-2.27a1.8121,1.8121,0,0,0,.32-3.61,16.0253,16.0253,0,0,0-10.67,2.37l1.97-6.19a2.5449,2.5449,0,0,0-2.43-3.31h-13.86a2.5405,2.5405,0,0,0-2.41,3.37l2.14,6.27c-2.03-1.43-5.52-2.98-10.86-2.51a1.8116,1.8116,0,1,0,.31,3.61Z"/><path d="M58.7678,51.0493l-3.26-6.81a11.7345,11.7345,0,0,1-1.14-5.31c.12-5.52-.79-18.25-11.17-21.72a20.8409,20.8409,0,0,1-11.23,3.35,22.6776,22.6776,0,0,1-11.48-3.24c-10.09,3.61-10.97,16.15-10.85,21.61a11.7472,11.7472,0,0,1-1.15,5.31l-3.25,6.81a7.0607,7.0607,0,0,0,6.37,10.11h40.78A7.0657,7.0657,0,0,0,58.7678,51.0493ZM33.72,49.9775h-.3946v3.31a1.5,1.5,0,1,1-3,0v-3.31H25.9411a1.5,1.5,0,0,1,0-3H33.72a2.49,2.49,0,0,0,0-4.98H30.23a5.7893,5.7893,0,0,1,0-11.5786h.0947V26.7553a1.5,1.5,0,0,1,3,0v3.6641h3.6885a1.5,1.5,0,1,1,0,3H30.23a2.7893,2.7893,0,0,0,0,5.5786H33.72a5.49,5.49,0,0,1,0,10.98Z"/></g></svg>